<svg width="1278" height="350" viewBox="0 0 1278 350" fill="none" xmlns="http://www.w3.org/2000/svg">
<g filter="url(#filter0_d)">
<circle cx="170" cy="170" r="150" fill="url(#paint0_linear)"/>
<path d="M127.237 132.59L129.553 138.188C130.711 140.89 133.414 142.627 136.116 142.627C137.081 142.627 138.046 142.434 139.012 142.048C142.679 140.504 144.416 136.257 142.872 132.59L140.556 126.992C139.012 123.131 139.591 118.884 142.1 115.603C148.856 107.109 149.628 95.3344 144.03 86.0688L141.135 81.436C139.012 77.9614 134.572 76.9962 131.29 79.1196C128.009 81.243 126.85 85.6827 128.974 88.9643L131.869 93.5971C134.379 97.6508 133.993 102.863 131.097 106.53C124.92 113.866 123.569 123.903 127.237 132.59Z" fill="white"/>
<path d="M160.824 132.59L163.141 138.188C164.299 140.89 167.001 142.627 169.704 142.627C170.669 142.627 171.634 142.434 172.599 142.048C176.267 140.504 178.004 136.257 176.46 132.59L174.144 126.992C172.599 123.131 173.178 118.884 175.688 115.603C182.444 107.109 183.216 95.3344 177.618 86.0688L174.723 81.436C172.599 77.9614 168.159 76.9962 164.878 79.1196C161.596 81.243 160.438 85.4897 162.369 88.9643L165.264 93.5971C167.773 97.6508 167.387 102.863 164.492 106.53C158.508 113.866 157.157 123.903 160.824 132.59Z" fill="white"/>
<path d="M194.412 132.59L196.728 138.188C197.887 140.89 200.589 142.627 203.292 142.627C204.257 142.627 205.222 142.434 206.187 142.048C209.855 140.504 211.592 136.257 210.048 132.59L207.731 126.992C206.187 123.131 206.766 118.884 209.276 115.603C216.032 107.109 216.804 95.3344 211.206 86.0688L208.31 81.436C206.187 77.9614 201.747 76.9962 198.466 79.1196C194.991 81.243 194.026 85.6827 196.149 88.9643L199.045 93.5971C201.554 97.6508 201.168 102.863 198.273 106.53C192.096 113.866 190.744 123.903 194.412 132.59Z" fill="white"/>
<path d="M213.522 164.054C211.013 164.054 208.696 164.44 206.38 165.212C204.45 158.842 197.501 154.209 189.007 154.209C183.216 154.209 178.004 156.526 174.53 160.193C169.125 158.263 162.755 157.105 156.191 157.105C145.961 157.105 136.888 159.614 130.132 163.668C127.816 161.931 125.113 160.773 122.218 160.773C114.11 160.773 107.547 168.88 107.547 178.918V179.304H232.633C231.86 170.81 223.56 164.054 213.522 164.054Z" fill="white"/>
<path d="M240.933 189.728H99.2467C96.9303 189.728 95 191.658 95 193.974C95 215.401 107.161 234.125 125.692 245.9V256.903C125.692 259.219 127.623 261.15 129.939 261.15H210.048C212.364 261.15 214.294 259.219 214.294 256.903V245.9C232.826 234.125 244.987 215.208 244.987 193.974C245.18 191.658 243.249 189.728 240.933 189.728Z" fill="white"/>
</g>
<path d="M417.25 141.916C421.215 141.916 426.029 143.615 431.693 147.014C436.508 150.601 438.915 153.055 438.915 154.377C442.691 162.307 444.579 167.074 444.579 168.679L444.721 169.812C443.305 173.116 442.597 175.381 442.597 176.608L441.747 176.75H429.711C428.578 176.75 427.209 176.892 425.604 177.175C412.011 176.042 402.476 175.476 397.001 175.476H394.027C392.895 177.175 392.328 178.402 392.328 179.157C392.989 180.196 393.319 181.848 393.319 184.113C393.319 187.701 393.886 189.825 395.019 190.485L395.16 191.193V191.335L394.311 190.91V191.335L395.585 192.751C395.585 193.978 396.435 195.536 398.134 197.424C401.249 202.899 404.647 206.298 408.329 207.619C411.444 208.658 414.984 209.177 418.949 209.177C419.61 209.177 420.979 208.563 423.056 207.336C424.755 206.958 428.342 203.89 433.817 198.132V197.707C433.817 197.518 433.157 197.329 431.835 197.141L431.552 196.433C433.723 192.279 436.319 189.541 439.34 188.22C440.189 189.069 441.936 190.391 444.579 192.185C446.656 195.394 449.441 199.17 452.934 203.513V204.079C449.913 208.044 447.742 210.026 446.42 210.026H445.854C445.854 207.95 444.579 206.77 442.03 206.486C441.558 206.486 439.481 208.044 435.8 211.159C433.629 212.858 429.9 214.463 424.613 215.974C418.477 217.201 414.135 217.814 411.586 217.814L403.515 214.982C398.983 214.982 394.83 212.528 391.054 207.619C389.449 205.92 388.127 203.89 387.089 201.53C387.089 200.775 386.05 196.857 383.974 189.777C383.313 187.04 382.982 184.396 382.982 181.848V181.706C382.982 169.151 386.758 158.153 394.311 148.713C395.255 146.353 397.426 144.606 400.824 143.474C403.09 142.813 405.827 142.294 409.037 141.916C409.887 141.538 412.624 141.538 417.25 141.916ZM404.223 144.89V145.031H404.506C406.016 145.031 408.848 144.512 413.002 143.474C413.852 143.379 414.276 143.143 414.276 142.766L413.852 142.341H413.71C410.972 142.341 407.904 143.096 404.506 144.606L404.223 144.89ZM398.559 147.297V147.438L398.983 147.722H399.125C401.013 147.25 401.957 146.778 401.957 146.306V145.456L401.391 144.89H401.107C399.408 145.456 398.559 146.258 398.559 147.297ZM420.365 145.881H416.117V146.164C416.117 146.542 418.052 146.825 421.923 147.014H422.064V146.447C422.064 146.258 421.498 146.07 420.365 145.881ZM410.312 148.005V148.146C410.312 148.524 412.247 148.996 416.117 149.562L416.4 149.421V148.854C415.645 147.816 414.371 147.297 412.577 147.297H412.152C410.925 147.391 410.312 147.627 410.312 148.005ZM418.949 148.854V148.996C424.33 152.111 427.209 153.669 427.587 153.669H427.729L429.145 153.103L429.994 153.386L430.136 153.103V152.961C429.758 152.678 428.956 152.395 427.729 152.111L424.896 150.837C424.141 149.232 422.631 148.43 420.365 148.43H419.94C419.28 148.524 418.949 148.666 418.949 148.854ZM402.099 152.961C403.043 152.206 404.931 151.403 407.763 150.554V150.271L407.621 149.987H406.205C403.467 150.743 402.099 151.734 402.099 152.961ZM394.594 162.307V162.731C394.594 163.77 403.184 164.95 420.365 166.271L421.781 166.696L423.622 166.555C427.398 167.782 429.947 168.396 431.269 168.396C431.269 168.679 431.552 168.915 432.118 169.104C432.685 168.254 432.968 167.451 432.968 166.696V164.006C432.968 162.779 430.608 160.041 425.888 155.793C423.716 153.622 421.262 152.395 418.524 152.111L413.71 151.262C405.875 152.867 400.73 154.802 398.275 157.067C397.237 159.05 396.01 160.796 394.594 162.307ZM396.151 153.811V154.094H396.435C397.662 153.811 398.275 153.48 398.275 153.103V152.961H397.567C397.095 152.961 396.623 153.244 396.151 153.811ZM429.994 155.793C430.183 156.548 430.608 156.926 431.269 156.926H431.552L431.835 156.501V155.651L431.269 154.943C430.419 154.943 429.994 155.227 429.994 155.793ZM393.461 156.501L393.178 156.926V157.067H393.461L394.027 156.643V156.501H393.461ZM433.534 157.634H432.968C434.006 160.749 434.761 162.448 435.233 162.731H435.8L436.225 162.448C435.469 159.427 434.667 157.917 433.817 157.917L433.534 157.634ZM394.735 160.183C395.302 160.088 395.585 159.711 395.585 159.05V158.908C395.019 159.097 394.735 159.522 394.735 160.183ZM438.349 164.006L437.924 164.289V165.28L438.349 165.847C438.726 165.752 438.915 165.422 438.915 164.855V164.289L438.773 164.006H438.349ZM393.178 165.988V166.555L393.461 166.838H393.744C394.405 166.555 394.971 166.035 395.443 165.28V164.855H394.735C394.169 164.855 393.65 165.233 393.178 165.988ZM387.372 165.139C386.617 165.894 385.956 167.782 385.39 170.803H385.673C386.239 170.803 387.089 169.151 388.222 165.847C388.033 165.375 387.75 165.139 387.372 165.139ZM401.815 166.838V167.263C403.609 168.49 406.866 169.104 411.586 169.104H412.86L414.701 168.962V168.396C410.831 167.546 406.535 167.027 401.815 166.838ZM427.729 170.52H427.304V170.944H427.729V170.52ZM400.399 171.652V171.936C402.287 172.408 407.291 172.88 415.409 173.352V173.493V173.635L412.436 174.06C412.436 174.343 413.663 174.484 416.117 174.484C420.082 174.484 422.064 174.296 422.064 173.918C422.064 172.974 414.843 172.219 400.399 171.652ZM386.098 172.644H385.39V173.493C385.39 174.06 385.531 174.343 385.814 174.343C386.286 174.343 386.57 173.871 386.664 172.927L386.098 172.644ZM397.567 172.927L396.859 173.068V173.918H397.567V173.352V173.068V172.927ZM393.036 174.06V174.201H393.178L395.585 173.918V173.635L395.16 173.068H394.735C393.886 173.068 393.319 173.399 393.036 174.06ZM427.445 174.343C427.445 174.72 428.295 174.909 429.994 174.909L431.269 174.768V174.484C431.269 174.107 430.372 173.918 428.578 173.918C427.823 174.107 427.445 174.248 427.445 174.343ZM385.39 178.024V178.449V178.591C385.295 178.874 385.248 179.535 385.248 180.573V181.14C385.248 182.839 385.72 184.349 386.664 185.671H386.806C386.806 181.14 386.334 178.591 385.39 178.024ZM387.938 190.344H387.514V190.627L387.938 190.91H388.222V190.627L387.938 190.344ZM388.93 192.751L388.788 192.893V193.176C389.166 194.686 389.732 195.441 390.487 195.441V195.3V195.017C390.487 194.261 389.968 193.506 388.93 192.751ZM435.092 194.025L435.375 194.45H436.083C436.649 194.45 436.98 194.261 437.074 193.884L436.508 193.317H436.366C435.705 193.317 435.281 193.553 435.092 194.025ZM431.835 202.238L432.118 202.38H432.26C433.298 202.38 433.959 201.766 434.242 200.539V200.256C433.204 200.256 432.401 200.917 431.835 202.238ZM441.747 201.955L441.889 202.097H442.313C442.88 201.719 443.163 201.2 443.163 200.539H442.738C442.077 200.917 441.747 201.389 441.747 201.955ZM446.703 200.539H446.562V200.822C446.845 201.955 447.27 202.521 447.836 202.521H447.978L448.261 202.238V202.097C448.072 201.058 447.553 200.539 446.703 200.539ZM438.49 203.513L438.915 203.796C440.331 203.324 441.039 202.71 441.039 201.955V201.672H440.897C439.576 201.672 438.773 202.285 438.49 203.513ZM427.445 206.628H427.729C428.484 206.345 428.909 205.873 429.003 205.212L428.861 205.07C427.917 205.637 427.445 206.156 427.445 206.628ZM435.8 207.336H436.366C437.31 206.486 437.782 205.873 437.782 205.495H437.641C436.413 205.873 435.8 206.486 435.8 207.336ZM395.585 208.61H395.16V209.177C395.349 209.649 396.151 210.168 397.567 210.734L398.134 211.159C397.095 209.554 396.246 208.705 395.585 208.61ZM405.497 209.177H405.355V209.318C405.355 209.696 406.347 210.121 408.329 210.593L408.471 210.451V210.168C407.243 209.507 406.252 209.177 405.497 209.177ZM413.852 210.734H413.427V211.159H413.852V210.734ZM428.578 212.858C429.522 212.858 430.277 212.15 430.844 210.734H430.419C429.192 211.395 428.578 212.103 428.578 212.858ZM418.666 214.274L415.692 213.991H415.126C414.276 213.991 413.804 214.18 413.71 214.558V214.841L414.276 215.266H416.825C419.752 215.266 423.197 214.746 427.162 213.708C426.973 213.142 426.407 212.858 425.463 212.858H424.755C422.489 212.858 420.46 213.33 418.666 214.274ZM472.157 136.252L489.716 135.827C491.226 135.827 494.389 136.488 499.203 137.81C504.679 143.002 507.935 147.061 508.974 149.987C511.051 152.159 512.703 156.454 513.93 162.873C515.44 164.383 516.196 167.735 516.196 172.927L516.337 176.467L515.771 190.485C515.771 193.317 517.517 196.81 521.01 200.964C524.22 204.079 526.296 205.637 527.24 205.637V205.92C527.24 207.053 525.588 208.846 522.284 211.301C519.83 213.755 518.272 214.982 517.612 214.982H517.47C515.96 214.794 512.136 212.009 506 206.628C494.861 210.97 489.244 213.189 489.15 213.283C485.468 214.416 481.362 214.982 476.83 214.982H476.122C471.025 214.133 466.682 212.15 463.095 209.035C462.434 208.469 461.065 206.109 458.988 201.955C457.289 199.878 456.44 197.329 456.44 194.309V190.202C456.44 187.559 457.148 185.104 458.564 182.839C459.791 178.968 461.915 175.287 464.936 171.794C466.446 170 467.957 168.868 469.467 168.396C474.376 165.752 479.238 164.431 484.052 164.431L490.424 164.289H491.274C494.861 164.289 497.41 164.808 498.92 165.847H499.77C500.242 165.847 500.478 165.658 500.478 165.28C499.439 160.843 497.74 156.595 495.38 152.536C493.303 149.043 489.433 147.297 483.769 147.297L477.963 146.447C472.96 147.486 470.458 148.524 470.458 149.562C468.476 152.111 467.296 155.274 466.918 159.05C466.729 159.522 465.03 159.758 461.821 159.758L460.971 160.041C460.593 160.041 460.121 160.843 459.555 162.448C456.912 162.071 455.59 161.504 455.59 160.749C455.779 160.183 456.109 156.784 456.581 150.554C458.092 146.211 461.679 142.199 467.343 138.518C469.986 137.007 471.591 136.252 472.157 136.252ZM488.017 138.659L487.734 139.084L488.158 139.65H489.008L489.15 139.367L488.725 138.659H488.017ZM498.779 139.792H498.495V140.075C499.251 140.83 499.911 141.208 500.478 141.208H500.619V140.925C499.864 140.17 499.251 139.792 498.779 139.792ZM476.122 140.5V140.925C476.217 141.208 476.689 141.35 477.538 141.35C478.388 141.35 479.568 141.066 481.078 140.5V139.934H480.512C478.435 139.934 476.972 140.122 476.122 140.5ZM463.378 145.031V145.314H463.52C464.369 145.314 465.644 144.418 467.343 142.624V142.199H467.201C466.257 142.199 464.983 143.143 463.378 145.031ZM483.061 144.04L482.353 144.606L482.778 145.314H484.618L485.043 144.89L484.194 144.04H483.061ZM462.245 155.51L461.821 155.793V157.917H461.962C462.34 157.823 462.529 157.492 462.529 156.926V155.793L462.245 155.51ZM513.647 166.838H513.505V167.121C513.694 167.876 513.883 168.254 514.071 168.254L514.213 167.546C514.024 167.074 513.835 166.838 513.647 166.838ZM510.39 171.794L509.965 172.077V172.502C510.343 173.918 510.72 174.626 511.098 174.626H511.381C511.381 173.399 511.098 172.455 510.531 171.794H510.39ZM468.901 172.644L467.343 173.352V174.06H467.626C468.287 174.06 468.759 173.682 469.042 172.927V172.644H468.901ZM467.343 186.096C468.004 191.76 468.806 194.592 469.75 194.592L471.166 196.433V196.574L469.892 196.433V196.857C471.685 199.312 475.367 201.577 480.937 203.654C481.598 204.032 482.542 204.315 483.769 204.504C485.468 204.504 491.982 201.719 503.31 196.149C504.065 195.677 504.443 195.158 504.443 194.592V193.884C503.593 190.013 502.885 185.482 502.319 180.29L502.035 180.148C502.035 179.11 500.997 178.26 498.92 177.6C491.934 175.617 487.167 174.626 484.618 174.626C477.444 176.231 472.535 178.638 469.892 181.848C468.193 183.547 467.343 184.963 467.343 186.096ZM509.965 176.892L509.54 176.608V177.033H509.965V176.892ZM510.531 179.582H509.682V180.148L510.107 180.573L510.531 180.148V179.582ZM506 183.122L505.575 183.547L506 184.113L506.567 183.972V183.547L506.142 183.122H506ZM511.098 183.547H510.673V183.688C510.862 187.276 511.239 189.069 511.806 189.069L512.089 188.786V188.503C512.089 186.521 511.759 184.868 511.098 183.547ZM505.575 188.078L505.434 188.22V189.069L505.859 189.636H506L506.567 189.069V188.22L506.142 188.078H505.575ZM517.612 201.389H517.187V202.238C517.564 203.465 517.989 204.079 518.461 204.079H518.886V203.654C518.508 202.144 518.084 201.389 517.612 201.389ZM465.502 201.813L465.219 202.097V202.238L465.502 202.521H466.21V202.238L465.785 201.813H465.502ZM513.222 203.654L512.797 204.079C513.08 204.74 513.458 205.165 513.93 205.354H514.071L514.638 204.787V204.504L513.93 203.654H513.222ZM492.69 205.637V205.92H493.256C494.578 205.92 496.324 205.354 498.495 204.221V204.079H497.929C494.719 204.457 492.973 204.976 492.69 205.637ZM516.337 206.062L516.054 206.628V206.911L516.62 207.478H517.187L517.612 207.194V206.911L516.904 206.062H516.337ZM481.362 207.194L480.937 207.619C481.126 208.091 481.503 208.327 482.07 208.327C483.108 208.138 483.627 207.902 483.627 207.619V207.478L483.202 207.194H481.362ZM465.927 209.177L465.502 209.743C465.88 210.593 468.24 211.678 472.582 213C473.998 213.661 475.886 213.991 478.246 213.991V213.85C478.246 213.566 476.453 213.047 472.865 212.292C470.789 211.726 468.617 210.687 466.352 209.177H465.927ZM559.916 99.1523C561.993 99.1523 563.692 99.7188 565.014 100.852C563.881 103.872 563.126 108.64 562.748 115.153L561.474 128.181C561.474 128.841 563.362 129.172 567.138 129.172C578.277 129.172 583.847 129.691 583.847 130.729C584.319 130.729 584.885 131.013 585.546 131.579C584.602 132.806 584.13 133.703 584.13 134.27V134.694L584.555 137.526L582.714 143.757C582.714 144.418 583.422 145.362 584.838 146.589V146.872C582.573 147.627 580.732 148.005 579.316 148.005C577.805 147.91 577.05 147.674 577.05 147.297V147.014L578.325 146.872H579.316L579.882 146.306V146.022L579.316 145.881L569.829 146.022L562.04 145.881C561.568 145.881 561.049 148.524 560.483 153.811H560.341L558.359 151.545L557.934 153.103V153.952C558.028 156.595 558.359 158.011 558.925 158.2C559.303 158.2 559.633 157.351 559.916 155.651V154.66H560.341L560.483 155.085L559.492 168.679C560.624 188.22 561.616 197.99 562.465 197.99C562.937 201.011 564.117 202.521 566.005 202.521C567.044 203.182 568.318 203.513 569.829 203.513H572.377L580.873 203.088C581.062 203.088 581.393 205.59 581.865 210.593C582.053 212.103 581.723 213.189 580.873 213.85C580.118 214.605 578.797 214.982 576.909 214.982L566.005 215.266C560.058 215.266 555.055 213.614 550.996 210.31C548.352 209.366 547.031 206.534 547.031 201.813C546.842 199.265 546.511 191.713 546.039 179.157L547.739 159.899L548.163 151.545V150.412C547.503 146.447 546.37 144.465 544.765 144.465H540.517H535.561C534.145 144.465 532.729 144.795 531.313 145.456C530.369 145.362 529.189 144.087 527.773 141.633L530.605 129.03C530.605 128.653 536.316 128.417 547.739 128.322C547.739 127.095 548.399 125.537 549.721 123.649C550.099 108.923 550.618 101.56 551.279 101.56V101.135C551.279 100.946 551.043 100.852 550.571 100.852V100.427C550.571 100.144 553.686 99.7188 559.916 99.1523ZM554.536 102.976H554.394V103.825H554.819V103.259L554.536 102.976ZM560.624 103.259L560.058 103.825V104.108L560.483 107.365H560.766C561.899 106.232 562.465 105.241 562.465 104.392V103.825L562.04 103.259H560.624ZM555.527 108.498L555.102 108.073C554.913 109.017 554.819 110.244 554.819 111.755V112.321H555.102L555.527 109.914V108.498ZM555.952 114.445H555.668L555.102 128.464V128.605L555.527 129.03H555.81C556.471 129.03 556.801 127.85 556.801 125.49V122.233L556.518 115.295C556.329 114.729 556.14 114.445 555.952 114.445ZM531.454 130.729C531.454 131.39 531.879 131.721 532.729 131.721H534.853C538.723 131.721 542.311 131.532 545.615 131.154V130.871C545.615 130.399 543.302 130.163 538.676 130.163H532.729C531.879 130.163 531.454 130.352 531.454 130.729ZM575.634 130.163L573.793 130.871H572.094H569.687V131.296C571.764 131.862 573.557 132.146 575.068 132.146H578.325C578.513 132.146 578.608 132.004 578.608 131.721C578.419 130.682 577.9 130.163 577.05 130.163H575.634ZM579.599 131.579L579.174 131.862V132.146L579.599 132.287C580.543 132.287 581.062 132.098 581.157 131.721V131.579H579.599ZM533.72 133.42L533.437 133.703V134.553C533.437 135.497 536.599 135.969 542.924 135.969C546.134 135.969 547.739 135.733 547.739 135.261C547.739 134.128 543.585 133.514 535.278 133.42H533.72ZM563.881 134.694L563.456 135.119V135.261C563.456 135.733 565.156 136.016 568.554 136.11L570.961 135.969L574.218 136.535H574.785C575.445 136.535 575.776 136.252 575.776 135.686H575.634L564.872 134.694H563.881ZM579.174 137.81L578.608 138.376V138.518L579.174 138.942H579.882C580.732 138.942 581.251 138.659 581.44 138.093L581.015 137.81H579.174ZM534.995 138.376L534.428 138.801C534.428 139.178 534.664 139.367 535.136 139.367L538.676 139.509L542.499 139.367L542.641 139.226V138.942C541.508 138.565 539.384 138.376 536.269 138.376H534.995ZM546.039 141.066L534.428 140.642V140.925C534.428 141.586 538.015 141.916 545.19 141.916L546.323 141.633V141.491L546.039 141.066ZM566.288 141.491H565.58V141.916C565.675 142.105 567.327 142.577 570.537 143.332H570.82V143.049C569.309 142.01 567.799 141.491 566.288 141.491ZM573.51 142.907C576.059 143.757 578.325 144.182 580.307 144.182L580.873 143.615V142.766L580.449 142.341H577.333C574.785 142.341 573.51 142.53 573.51 142.907ZM553.828 148.005V149.138L554.252 149.562C554.63 149.468 554.819 149.138 554.819 148.571V148.005L554.536 147.014H554.394C554.016 147.108 553.828 147.438 553.828 148.005ZM559.067 150.554L558.359 149.987V150.412L558.925 150.979H559.067V150.554ZM554.536 150.837H554.252L554.111 151.545V152.253L554.252 153.103H554.819V151.828V151.12L554.536 150.837ZM554.819 160.607H554.394V161.74L554.819 162.307H555.102V161.74L554.819 160.607ZM548.022 178.591L548.447 182.556L548.305 187.512L548.447 188.928H548.871C549.438 188.928 549.721 186.709 549.721 182.272V179.016C549.721 174.673 549.532 172.502 549.155 172.502C548.494 172.502 548.116 174.532 548.022 178.591ZM557.226 189.777H556.943L556.801 190.769V191.901C556.801 192.562 556.99 192.94 557.368 193.034H557.651C558.028 192.94 558.217 192.609 558.217 192.043C558.123 190.533 557.792 189.777 557.226 189.777ZM558.359 195.866L557.792 197.424C557.792 199.595 558.264 200.964 559.208 201.53L559.492 200.964V199.689C559.397 197.329 559.02 196.055 558.359 195.866ZM552.836 196.857H552.412V198.981L552.695 199.831H552.836L553.12 199.548V197.141L552.836 196.857ZM556.943 205.778V205.92V206.77C557.037 207.147 557.368 207.525 557.934 207.902H558.925V207.619C558.925 206.581 558.264 205.967 556.943 205.778ZM572.661 208.61H573.227C576.72 208.044 578.466 207.43 578.466 206.77L578.183 206.486C574.501 207.43 572.661 208.138 572.661 208.61ZM553.403 206.628H553.12V207.194C553.403 209.554 554.441 210.734 556.235 210.734H557.651L557.934 210.31V210.168C557.934 209.979 557.084 209.649 555.385 209.177L553.403 206.628ZM633.515 162.873H634.223C634.79 162.873 635.356 166.602 635.922 174.06H636.064C636.064 175.098 631.25 175.948 621.621 176.608C610.481 178.78 603.543 179.865 600.805 179.865V179.582C600.805 178.827 604.723 177.93 612.558 176.892C616.051 176.042 617.797 175.428 617.797 175.051V174.909H616.381C605.242 175.57 599.672 177.128 599.672 179.582L598.54 180.148C595.33 180.148 593.725 176.797 593.725 170.095C593.725 168.301 597.407 167.027 604.77 166.271C604.77 165.988 605.242 165.847 606.186 165.847L609.018 166.413H610.434L633.515 162.873ZM630.683 165.28L629.834 165.422V165.847H631.108L631.816 165.563V165.28H630.683ZM623.603 166.979H625.302C626.246 166.979 626.766 166.791 626.86 166.413V166.271H626.577C624.594 166.46 623.603 166.696 623.603 166.979ZM616.098 168.396V168.679C617.137 168.679 617.703 168.396 617.797 167.829H617.089C616.429 167.829 616.098 168.018 616.098 168.396ZM625.161 169.953H628.276C631.297 169.764 632.949 169.34 633.232 168.679V168.396L632.524 168.112C627.615 168.773 625.161 169.387 625.161 169.953ZM609.301 169.528V170.095H609.443C611.425 170.095 612.936 169.717 613.974 168.962V168.679H613.691C612.558 168.679 611.095 168.962 609.301 169.528ZM596.699 169.528L596.132 170.095V171.936L596.416 172.219H596.699C596.982 172.219 597.171 171.605 597.265 170.378V169.953L596.982 169.528H596.699ZM600.805 169.528L600.38 170.095V170.378H601.088L601.372 169.953V169.528H600.805ZM622.47 170.095H622.187V170.378H622.754L622.47 170.095ZM620.629 174.343V174.484H620.913C629.314 174.201 633.515 173.824 633.515 173.352V173.068C633.326 172.785 633.043 172.502 632.666 172.219H632.524C629.22 172.219 625.255 172.927 620.629 174.343ZM596.416 173.493L596.132 173.918V174.201H596.416L596.84 173.918V173.493H596.416ZM677.236 146.022L681.201 147.155H682.475C687.856 149.799 692.86 152.961 697.485 156.643C702.3 160.796 704.707 163.911 704.707 165.988H704.424C703.668 164.667 702.913 164.006 702.158 164.006H702.016C701.733 164.006 701.592 164.195 701.592 164.572C701.969 165.611 702.819 167.404 704.14 169.953H704.424C704.612 169.953 704.848 169.481 705.132 168.537H705.273C705.556 168.632 705.887 170 706.264 172.644L707.539 175.476L707.256 177.316L707.68 182.414C707.02 184.774 706.406 187.889 705.84 191.76C705.462 193.553 701.072 200.256 692.671 211.867C688.895 215.454 685.213 217.248 681.626 217.248C678.322 217.626 674.593 217.814 670.439 217.814H667.749C666.144 217.814 661.943 216.446 655.146 213.708C646.556 206.062 642.261 200.209 642.261 196.149C641.033 193.601 639.995 191.241 639.145 189.069C639.145 187.842 640.42 183.783 642.969 176.892C642.969 172.549 644.007 169.528 646.084 167.829C650.521 158.295 656.138 152.111 662.934 149.279C668.882 147.108 673.649 146.022 677.236 146.022ZM651.748 190.485V191.335C653.069 193.884 654.533 196.621 656.138 199.548C656.138 200.492 657.931 201.813 661.518 203.513C663.218 205.495 666.38 207.053 671.006 208.186L673.555 208.469C677.708 207.619 680.823 206.722 682.9 205.778L687.998 201.53C693.284 195.866 695.833 191.099 695.644 187.229V185.954C695.078 184.444 694.795 181.989 694.795 178.591C694.795 175.948 694.984 173.871 695.361 172.36C695.361 171.7 693.52 170.048 689.839 167.404C687.195 163.628 684.458 161.315 681.626 160.466H679.927C668.882 160.938 663.359 161.835 663.359 163.156C660.905 165.611 659.206 168.018 658.262 170.378C655.241 173.588 653.73 175.712 653.73 176.75C652.881 180.62 652.22 185.199 651.748 190.485ZM656.138 156.218L655.713 156.926V157.492C656.279 157.492 659.158 155.51 664.35 151.545L665.483 151.12L666.333 151.262C672.658 150.601 675.82 149.987 675.82 149.421V149.279L673.555 148.854C667.135 148.854 661.33 151.309 656.138 156.218ZM667.182 159.191V159.333L667.466 159.758H669.448L679.502 157.492V157.209L676.811 156.643C670.392 157.398 667.182 158.247 667.182 159.191ZM644.951 194.45L644.385 194.875V195.866C644.573 199.076 645.47 200.869 647.075 201.247L647.217 201.105V200.964C646.556 196.621 645.801 194.45 644.951 194.45ZM666.899 154.377V155.085C674.263 154.235 677.944 153.669 677.944 153.386L676.811 152.961H676.67C672.138 152.961 668.882 153.433 666.899 154.377ZM678.935 148.996C679.407 150.318 680.446 150.979 682.051 150.979L683.467 151.12L683.75 150.979V150.271C683.75 149.232 682.759 148.618 680.776 148.43C679.549 148.524 678.935 148.713 678.935 148.996ZM653.164 208.752H652.173V209.318C653.4 210.546 655.618 211.159 658.828 211.159H660.386C659.914 210.498 657.506 209.696 653.164 208.752ZM676.528 213.991V214.274C676.528 214.558 677.236 214.794 678.652 214.982C680.257 214.982 681.059 214.746 681.059 214.274V213.991C680.965 213.614 680.635 213.236 680.068 212.858H678.794C677.755 212.858 677 213.236 676.528 213.991ZM703.432 187.087C703.527 189.919 703.763 191.429 704.14 191.618H704.424C704.424 190.58 704.848 189.447 705.698 188.22V187.795L704.14 185.671H703.857C703.668 185.671 703.527 186.143 703.432 187.087ZM694.087 162.731H693.52C694.087 163.959 695.456 164.997 697.627 165.847H698.193L698.618 165.422V165.28C697.013 163.581 695.503 162.731 694.087 162.731ZM690.971 158.342V158.625C691.255 159.758 692.576 160.938 694.936 162.165H695.361L695.644 161.74V161.599C695.172 160.938 693.615 159.852 690.971 158.342ZM681.626 153.669L681.343 153.811C683.136 155.227 684.552 155.935 685.591 155.935L685.732 155.651V155.51C684.222 154.283 682.853 153.669 681.626 153.669ZM662.793 210.593V211.018C662.793 211.584 664.114 211.867 666.758 211.867L666.899 211.726V211.442C665.672 210.876 664.303 210.593 662.793 210.593ZM688.847 152.111L688.423 152.536C689.461 153.858 690.499 154.519 691.538 154.519C691.538 153.48 690.735 152.678 689.131 152.111H688.847ZM654.297 166.696V167.688H654.721C655.949 166.555 656.562 165.658 656.562 164.997V164.855H655.854C655.288 165.233 654.769 165.847 654.297 166.696ZM686.299 160.183C686.865 161.127 687.526 161.599 688.281 161.599L688.423 161.315V161.032C688.423 160.183 688.045 159.758 687.29 159.758C686.629 159.852 686.299 159.994 686.299 160.183ZM700.034 197.424V197.565C700.789 197.565 701.45 196.81 702.016 195.3V195.017H701.592C701.025 195.017 700.506 195.819 700.034 197.424ZM657.27 159.333C658.12 159.333 658.922 158.767 659.678 157.634V157.209C658.073 157.681 657.27 158.389 657.27 159.333ZM702.3 194.875H703.008L703.574 195.3C703.668 193.789 703.432 193.129 702.866 193.317H702.583L702.441 192.326L702.3 194.875ZM684.175 214.982H684.316C686.015 214.416 686.865 213.944 686.865 213.566L686.582 213.283C685.26 213.755 684.458 214.322 684.175 214.982ZM650.19 203.796L649.624 204.079V204.362L650.757 205.495H651.323C651.323 204.834 650.945 204.268 650.19 203.796ZM659.819 212.575V212.717H661.66L661.943 212.434L661.66 212.009H661.377C660.433 212.009 659.914 212.198 659.819 212.575ZM705.698 177.033L705.273 177.458V178.024L705.698 178.591L706.264 178.024V177.458L705.84 177.033H705.698ZM645.801 172.502C646.273 172.502 646.697 172.172 647.075 171.511V171.228C646.225 171.228 645.801 171.652 645.801 172.502ZM641.411 187.795L641.128 188.22C641.222 189.069 641.364 189.494 641.553 189.494L641.836 189.353V188.645L641.553 187.795H641.411ZM679.219 155.085V155.227L680.635 154.094L680.351 153.952C679.407 154.519 679.03 154.896 679.219 155.085ZM648.633 167.688H648.774C649.152 167.593 649.341 167.215 649.341 166.555H649.057C648.774 166.743 648.633 167.121 648.633 167.688ZM649.482 184.68L648.916 185.246V185.529H649.341L649.624 185.104V184.68H649.482ZM657.837 163.298H657.27V163.864H657.554L657.837 163.581V163.298ZM720.957 142.766L730.586 146.022C730.68 147.438 731.247 148.949 732.285 150.554L732.568 152.111C731.719 158.153 731.483 170.708 731.86 189.777C731.86 192.515 732.993 194.309 735.259 195.158L736.25 197.424C736.25 197.99 739.365 198.509 745.596 198.981H746.162C748.145 198.981 750.599 196.857 753.525 192.609C755.791 190.344 757.301 188.55 758.057 187.229H758.765V186.379L758.481 185.671C759.048 184.821 759.473 183.547 759.756 181.848H759.897V180.573L762.446 153.669V151.12L762.163 149.704V149.562C763.201 148.807 763.721 147.627 763.721 146.022C763.721 144.984 764.051 144.418 764.712 144.323L767.969 146.022H771.084C774.86 146.022 777.55 146.825 779.155 148.43V148.996C778.117 148.996 777.598 149.185 777.598 149.562L779.014 152.819H779.438C779.627 151.403 779.816 150.695 780.005 150.695C780.382 151.167 780.618 151.97 780.713 153.103L779.155 170.661L779.438 170.944V171.086C778.778 173.068 778.117 178.78 777.456 188.22V192.326C777.456 198.462 777.739 201.53 778.306 201.53H778.872C780.571 201.53 783.309 201.153 787.085 200.397C787.463 200.492 788.312 201.058 789.634 202.097C789.256 210.593 788.69 214.841 787.935 214.841L786.377 213.566L782.129 213.85L766.411 213.566C765.562 213.566 764.712 211.631 763.862 207.761C763.296 207.289 763.013 206.722 763.013 206.062L763.296 204.787H762.871C762.116 204.787 759.331 206.062 754.517 208.61C754.233 209.271 750.929 210.64 744.604 212.717C743.188 213.472 741.3 214.227 738.94 214.982C737.524 214.133 735.259 213.283 732.144 212.434C726.196 206.581 722.562 201.436 721.24 196.999C718.786 193.506 717.559 186.049 717.559 174.626L719.116 158.059V157.634C719.116 157.445 715.907 156.831 709.487 155.793C708.921 154.943 708.638 152.583 708.638 148.713C708.638 146.164 709.062 144.89 709.912 144.89C709.912 143.851 713.594 143.143 720.957 142.766ZM718.55 144.465L717.983 144.748V145.031H718.975V144.748L718.55 144.465ZM722.09 145.598L721.382 145.881V146.022C721.382 146.117 722.09 146.542 723.506 147.297C723.506 148.524 723.6 149.138 723.789 149.138H724.639C726.904 149.138 728.273 148.76 728.745 148.005V147.722C728.745 147.061 727.329 146.542 724.497 146.164C724.497 145.975 723.931 145.786 722.798 145.598H722.09ZM712.461 149.562H710.62V149.987L710.903 150.129H711.328L712.461 149.987V149.562ZM712.461 150.979H711.328V151.262C711.423 151.828 711.942 152.111 712.886 152.111L713.027 151.828V151.545L712.461 150.979ZM765.137 147.58H764.854C764.854 148.524 765.609 148.996 767.119 148.996H767.969L768.394 148.713V148.571C768.394 148.099 767.308 147.769 765.137 147.58ZM716.143 152.678C716.143 153.244 717.653 154.047 720.674 155.085H722.09C722.467 155.085 722.656 154.755 722.656 154.094C721.618 153.055 720.343 152.395 718.833 152.111H717.7C716.756 152.111 716.237 152.3 716.143 152.678ZM714.302 152.253L713.594 152.536V152.961L713.735 153.103V153.244C714.585 153.055 715.01 152.819 715.01 152.536V152.253H714.302ZM726.763 153.811V156.501L727.188 156.784C727.754 156.501 728.037 155.935 728.037 155.085V153.527C728.037 152.961 727.896 152.583 727.612 152.395H727.329C726.951 152.489 726.763 152.961 726.763 153.811ZM711.187 153.244L710.62 153.811L710.903 154.094H712.036L712.461 153.811L711.895 153.244H711.187ZM766.411 152.111L765.986 152.536V152.819C765.986 153.197 766.317 153.386 766.978 153.386H767.119C767.78 153.386 768.158 153.197 768.252 152.819V152.536C768.158 152.253 767.686 152.111 766.836 152.111H766.411ZM720.532 160.183V161.315L722.656 160.607V157.634L722.373 157.209C721.901 157.209 721.287 158.2 720.532 160.183ZM768.394 167.688V168.254H768.535C769.479 168.254 769.951 167.168 769.951 164.997C769.857 164.053 769.715 163.581 769.526 163.581C769.243 163.581 768.866 164.95 768.394 167.688ZM774.058 172.077H773.633L773.35 172.644C773.538 173.116 773.727 173.352 773.916 173.352H774.058V172.077ZM723.081 176.042L722.656 175.9L722.09 176.467V176.75L722.656 177.033L723.081 176.608V176.042ZM766.411 181.14L767.119 181.848C767.591 181.659 767.874 180.715 767.969 179.016L767.827 178.732H767.544C766.789 179.299 766.411 180.101 766.411 181.14ZM725.913 180.856V181.848C725.913 183.075 726.527 184.019 727.754 184.68H728.179C728.179 181.187 727.896 179.44 727.329 179.44H726.763C726.196 179.724 725.913 180.196 725.913 180.856ZM766.128 182.697L765.703 183.122V184.396L766.128 184.963C766.694 184.68 767.119 184.255 767.402 183.688V183.122L766.978 182.697H766.128ZM721.099 184.255L720.674 184.68V185.246C720.674 188.928 722.656 194.686 726.621 202.521C727.376 202.993 727.896 203.229 728.179 203.229V202.521L724.072 191.052C722.845 186.709 721.901 184.444 721.24 184.255H721.099ZM769.526 188.22L768.96 188.786V188.928L769.526 189.353L769.951 188.928L769.81 188.22H769.526ZM753.95 195.158L754.092 195.441H754.233C756.499 192.421 757.632 190.674 757.632 190.202V189.919H757.207C756.452 190.863 755.366 192.609 753.95 195.158ZM728.604 190.202V190.344C728.887 190.91 729.264 191.193 729.736 191.193V191.052C729.736 190.485 729.359 190.202 728.604 190.202ZM769.243 190.485H768.96V191.335C768.96 192.845 769.196 194.781 769.668 197.141H770.093C770.47 195.725 770.659 194.356 770.659 193.034V192.043C770.659 191.005 770.187 190.485 769.243 190.485ZM761.597 191.901L761.03 191.193C760.464 191.949 760.181 192.515 760.181 192.893L760.889 193.317H761.03L761.597 192.893V191.901ZM766.411 193.317H766.128V194.309H766.411L766.836 193.884V193.459L766.411 193.317ZM732.71 197.424H732.568V197.849L732.852 198.273H732.993V197.849L732.71 197.424ZM775.332 197.565L773.916 199.689V200.114H775.332L775.898 199.689V198.981C775.898 198.132 775.71 197.66 775.332 197.565ZM762.163 199.973V200.114H762.446L763.438 199.265V198.698C762.588 198.698 762.163 199.123 762.163 199.973ZM766.411 199.689L765.986 200.114V201.813C765.986 208.422 766.317 211.726 766.978 211.726H767.402C768.063 211.631 768.394 211.348 768.394 210.876C767.638 209.554 767.214 206.109 767.119 200.539L766.411 199.689ZM731.719 200.397H731.294V200.964C731.388 201.341 731.719 201.53 732.285 201.53V200.964L731.719 200.397ZM735.259 201.389H734.834V201.53C734.834 202.569 736.486 204.079 739.79 206.062C743.566 204.551 745.454 203.607 745.454 203.229V203.088C743 203.088 739.601 202.521 735.259 201.389ZM742.056 206.628V206.911H743.755C747.437 206.062 749.891 204.787 751.118 203.088V202.521H750.41C749.844 202.521 747.059 203.89 742.056 206.628ZM783.828 203.654L779.438 204.221V204.787L780.288 204.929H780.854C782.931 204.834 783.97 204.504 783.97 203.938V203.654H783.828ZM783.828 206.062H783.262V206.911H783.828L784.253 206.628V206.345C784.253 206.156 784.111 206.062 783.828 206.062ZM772.358 208.327L771.934 208.61V209.035C772.122 209.507 772.689 209.743 773.633 209.743H775.049L775.474 209.46V209.177C775.474 208.705 774.86 208.422 773.633 208.327H772.358ZM739.365 209.743H738.232L732.568 209.177H732.285L731.719 209.743V209.885C731.719 210.734 734.362 211.678 739.648 212.717C741.253 212.717 744.416 211.537 749.136 209.177L749.277 209.035V208.61H748.286C745.454 209.366 742.48 209.743 739.365 209.743ZM822.876 99.1523C824.953 99.1523 826.652 99.7188 827.974 100.852C826.841 103.872 826.086 108.64 825.708 115.153L824.434 128.181C824.434 128.841 826.322 129.172 830.098 129.172C841.237 129.172 846.807 129.691 846.807 130.729C847.279 130.729 847.845 131.013 848.506 131.579C847.562 132.806 847.09 133.703 847.09 134.27V134.694L847.515 137.526L845.674 143.757C845.674 144.418 846.382 145.362 847.798 146.589V146.872C845.532 147.627 843.692 148.005 842.276 148.005C840.765 147.91 840.01 147.674 840.01 147.297V147.014L841.284 146.872H842.276L842.842 146.306V146.022L842.276 145.881L832.788 146.022L825 145.881C824.528 145.881 824.009 148.524 823.443 153.811H823.301L821.319 151.545L820.894 153.103V153.952C820.988 156.595 821.319 158.011 821.885 158.2C822.263 158.2 822.593 157.351 822.876 155.651V154.66H823.301L823.443 155.085L822.451 168.679C823.584 188.22 824.575 197.99 825.425 197.99C825.897 201.011 827.077 202.521 828.965 202.521C830.003 203.182 831.278 203.513 832.788 203.513H835.337L843.833 203.088C844.022 203.088 844.352 205.59 844.824 210.593C845.013 212.103 844.683 213.189 843.833 213.85C843.078 214.605 841.756 214.982 839.868 214.982L828.965 215.266C823.018 215.266 818.015 213.614 813.955 210.31C811.312 209.366 809.99 206.534 809.99 201.813C809.802 199.265 809.471 191.713 808.999 179.157L810.698 159.899L811.123 151.545V150.412C810.462 146.447 809.33 144.465 807.725 144.465H803.477H798.521C797.105 144.465 795.689 144.795 794.273 145.456C793.329 145.362 792.149 144.087 790.733 141.633L793.565 129.03C793.565 128.653 799.276 128.417 810.698 128.322C810.698 127.095 811.359 125.537 812.681 123.649C813.058 108.923 813.578 101.56 814.238 101.56V101.135C814.238 100.946 814.002 100.852 813.53 100.852V100.427C813.53 100.144 816.646 99.7188 822.876 99.1523ZM817.495 102.976H817.354V103.825H817.779V103.259L817.495 102.976ZM823.584 103.259L823.018 103.825V104.108L823.443 107.365H823.726C824.859 106.232 825.425 105.241 825.425 104.392V103.825L825 103.259H823.584ZM818.487 108.498L818.062 108.073C817.873 109.017 817.779 110.244 817.779 111.755V112.321H818.062L818.487 109.914V108.498ZM818.911 114.445H818.628L818.062 128.464V128.605L818.487 129.03H818.77C819.431 129.03 819.761 127.85 819.761 125.49V122.233L819.478 115.295C819.289 114.729 819.1 114.445 818.911 114.445ZM794.414 130.729C794.414 131.39 794.839 131.721 795.689 131.721H797.813C801.683 131.721 805.27 131.532 808.574 131.154V130.871C808.574 130.399 806.262 130.163 801.636 130.163H795.689C794.839 130.163 794.414 130.352 794.414 130.729ZM838.594 130.163L836.753 130.871H835.054H832.647V131.296C834.723 131.862 836.517 132.146 838.028 132.146H841.284C841.473 132.146 841.568 132.004 841.568 131.721C841.379 130.682 840.86 130.163 840.01 130.163H838.594ZM842.559 131.579L842.134 131.862V132.146L842.559 132.287C843.503 132.287 844.022 132.098 844.116 131.721V131.579H842.559ZM796.68 133.42L796.397 133.703V134.553C796.397 135.497 799.559 135.969 805.884 135.969C809.094 135.969 810.698 135.733 810.698 135.261C810.698 134.128 806.545 133.514 798.237 133.42H796.68ZM826.841 134.694L826.416 135.119V135.261C826.416 135.733 828.115 136.016 831.514 136.11L833.921 135.969L837.178 136.535H837.744C838.405 136.535 838.736 136.252 838.736 135.686H838.594L827.832 134.694H826.841ZM842.134 137.81L841.568 138.376V138.518L842.134 138.942H842.842C843.692 138.942 844.211 138.659 844.4 138.093L843.975 137.81H842.134ZM797.954 138.376L797.388 138.801C797.388 139.178 797.624 139.367 798.096 139.367L801.636 139.509L805.459 139.367L805.601 139.226V138.942C804.468 138.565 802.344 138.376 799.229 138.376H797.954ZM808.999 141.066L797.388 140.642V140.925C797.388 141.586 800.975 141.916 808.15 141.916L809.282 141.633V141.491L808.999 141.066ZM829.248 141.491H828.54V141.916C828.635 142.105 830.287 142.577 833.496 143.332H833.779V143.049C832.269 142.01 830.759 141.491 829.248 141.491ZM836.47 142.907C839.019 143.757 841.284 144.182 843.267 144.182L843.833 143.615V142.766L843.408 142.341H840.293C837.744 142.341 836.47 142.53 836.47 142.907ZM816.787 148.005V149.138L817.212 149.562C817.59 149.468 817.779 149.138 817.779 148.571V148.005L817.495 147.014H817.354C816.976 147.108 816.787 147.438 816.787 148.005ZM822.027 150.554L821.319 149.987V150.412L821.885 150.979H822.027V150.554ZM817.495 150.837H817.212L817.07 151.545V152.253L817.212 153.103H817.779V151.828V151.12L817.495 150.837ZM817.779 160.607H817.354V161.74L817.779 162.307H818.062V161.74L817.779 160.607ZM810.982 178.591L811.406 182.556L811.265 187.512L811.406 188.928H811.831C812.398 188.928 812.681 186.709 812.681 182.272V179.016C812.681 174.673 812.492 172.502 812.114 172.502C811.454 172.502 811.076 174.532 810.982 178.591ZM820.186 189.777H819.903L819.761 190.769V191.901C819.761 192.562 819.95 192.94 820.327 193.034H820.611C820.988 192.94 821.177 192.609 821.177 192.043C821.083 190.533 820.752 189.777 820.186 189.777ZM821.319 195.866L820.752 197.424C820.752 199.595 821.224 200.964 822.168 201.53L822.451 200.964V199.689C822.357 197.329 821.979 196.055 821.319 195.866ZM815.796 196.857H815.371V198.981L815.654 199.831H815.796L816.079 199.548V197.141L815.796 196.857ZM819.903 205.778V205.92V206.77C819.997 207.147 820.327 207.525 820.894 207.902H821.885V207.619C821.885 206.581 821.224 205.967 819.903 205.778ZM835.62 208.61H836.187C839.68 208.044 841.426 207.43 841.426 206.77L841.143 206.486C837.461 207.43 835.62 208.138 835.62 208.61ZM816.362 206.628H816.079V207.194C816.362 209.554 817.401 210.734 819.195 210.734H820.611L820.894 210.31V210.168C820.894 209.979 820.044 209.649 818.345 209.177L816.362 206.628ZM896.475 162.873H897.183C897.749 162.873 898.316 166.602 898.882 174.06H899.024C899.024 175.098 894.209 175.948 884.58 176.608C873.441 178.78 866.503 179.865 863.765 179.865V179.582C863.765 178.827 867.683 177.93 875.518 176.892C879.011 176.042 880.757 175.428 880.757 175.051V174.909H879.341C868.202 175.57 862.632 177.128 862.632 179.582L861.499 180.148C858.29 180.148 856.685 176.797 856.685 170.095C856.685 168.301 860.367 167.027 867.73 166.271C867.73 165.988 868.202 165.847 869.146 165.847L871.978 166.413H873.394L896.475 162.873ZM893.643 165.28L892.793 165.422V165.847H894.068L894.776 165.563V165.28H893.643ZM886.563 166.979H888.262C889.206 166.979 889.725 166.791 889.82 166.413V166.271H889.537C887.554 166.46 886.563 166.696 886.563 166.979ZM879.058 168.396V168.679C880.096 168.679 880.663 168.396 880.757 167.829H880.049C879.388 167.829 879.058 168.018 879.058 168.396ZM888.121 169.953H891.236C894.257 169.764 895.909 169.34 896.192 168.679V168.396L895.484 168.112C890.575 168.773 888.121 169.387 888.121 169.953ZM872.261 169.528V170.095H872.403C874.385 170.095 875.896 169.717 876.934 168.962V168.679H876.651C875.518 168.679 874.055 168.962 872.261 169.528ZM859.659 169.528L859.092 170.095V171.936L859.375 172.219H859.659C859.942 172.219 860.131 171.605 860.225 170.378V169.953L859.942 169.528H859.659ZM863.765 169.528L863.34 170.095V170.378H864.048L864.331 169.953V169.528H863.765ZM885.43 170.095H885.147V170.378H885.713L885.43 170.095ZM883.589 174.343V174.484H883.872C892.274 174.201 896.475 173.824 896.475 173.352V173.068C896.286 172.785 896.003 172.502 895.625 172.219H895.484C892.18 172.219 888.215 172.927 883.589 174.343ZM859.375 173.493L859.092 173.918V174.201H859.375L859.8 173.918V173.493H859.375ZM922.496 113.029L927.31 112.321C930.614 112.321 933.21 114.021 935.098 117.419L936.089 121.95C935.901 123.744 934.862 126.104 932.974 129.03C931.747 130.257 929.859 130.871 927.31 130.871C921.363 130.871 917.681 129.974 916.265 128.181C914.849 126.293 914.188 123.649 914.283 120.251C913.905 120.251 913.716 120.157 913.716 119.968V119.685C916.548 115.248 919.475 113.029 922.496 113.029ZM919.664 116.569V116.711C922.873 116.333 924.478 115.909 924.478 115.437L923.77 115.153C921.033 115.625 919.664 116.097 919.664 116.569ZM922.071 120.676H922.213L923.062 120.817H923.345C924.384 120.817 925.045 120.44 925.328 119.685L925.186 119.401H923.487C922.732 119.401 922.26 119.826 922.071 120.676ZM932.266 119.401L931.841 120.109V120.676H931.983L932.408 120.109V119.401H932.266ZM928.868 124.074V124.499H929.434C930.095 124.499 930.614 124.169 930.992 123.508V123.083H930.709C930.048 123.083 929.434 123.413 928.868 124.074ZM925.753 126.623L925.328 127.048V127.331H927.877L928.301 127.048L927.877 126.623H925.753ZM907.769 140.075H908.194C908.949 140.736 909.893 141.066 911.026 141.066L912.867 140.217C925.705 140.217 932.125 140.594 932.125 141.35L932.266 142.341V144.748C933.116 146.636 933.541 148.43 933.541 150.129V152.395C932.408 167.782 931.653 180.243 931.275 189.777C931.086 190.344 930.897 191.335 930.709 192.751C930.803 193.129 931.228 193.317 931.983 193.317H932.408C937.505 193.317 940.054 193.931 940.054 195.158L939.913 195.441V196.291C941.046 198.557 941.612 202.144 941.612 207.053L942.178 212.717L941.754 213L935.523 213.283H921.363C910.79 213.283 905.504 212.434 905.504 210.734C905.504 209.696 905.22 208.658 904.654 207.619C904.937 206.958 905.409 206.439 906.07 206.062H906.495C906.872 206.439 907.297 206.628 907.769 206.628H908.052C910.79 206.628 914.047 206.392 917.823 205.92V205.637C909.704 205.07 905.645 204.41 905.645 203.654L905.504 202.521V200.964L905.22 197.282C905.22 196.338 908.76 195.866 915.84 195.866C916.784 195.866 917.256 193.742 917.256 189.494L918.956 152.253H918.672C916.029 152.253 914.708 152.064 914.708 151.687C914.708 151.592 914.849 151.451 915.132 151.262C909.468 151.262 906.636 150.601 906.636 149.279C906.259 149.185 906.07 148.807 906.07 148.146L906.778 146.447C906.778 146.07 906.495 145.55 905.928 144.89C906.684 144.134 907.203 142.624 907.486 140.358L907.769 140.075ZM910.035 142.907V143.474H910.743C913.197 143.474 914.424 143.285 914.424 142.907L914.141 142.341H913.716C911.262 142.341 910.035 142.53 910.035 142.907ZM929.293 141.916L928.868 142.341L929.434 142.766H929.717V142.341L929.293 141.916ZM913.15 144.89H910.601V145.314C910.601 145.692 911.262 145.881 912.584 145.881H914.141H914.566H919.239C920.655 145.881 921.363 145.645 921.363 145.173V145.031C921.363 144.559 918.625 144.512 913.15 144.89ZM925.753 145.031L924.478 144.89V145.173C925.139 145.173 925.941 145.645 926.885 146.589H927.169C927.357 146.589 927.452 146.447 927.452 146.164H927.735C928.113 146.164 928.349 146.589 928.443 147.438H928.726L930.709 146.022V145.173L927.735 145.031H925.753ZM925.186 152.961L925.894 155.085L924.903 157.634C925.281 158.483 925.611 158.908 925.894 158.908H926.036L926.319 158.059V157.209C926.319 153.811 926.838 152.111 927.877 152.111L928.301 151.545V150.979L927.877 150.554H927.027C925.8 150.554 925.186 151.356 925.186 152.961ZM920.797 166.413L920.372 184.68C920.466 185.34 920.608 185.671 920.797 185.671C921.08 185.671 921.269 185.246 921.363 184.396L921.221 182.272C921.693 181.8 922.213 179.912 922.779 176.608V175.759L922.496 173.776C923.062 173.304 923.345 172.974 923.345 172.785C922.968 171.747 922.779 170.708 922.779 169.67V169.387C923.157 169.387 923.629 164.1 924.195 153.527C923.912 152.772 923.629 152.395 923.345 152.395C921.929 152.395 921.08 157.067 920.797 166.413ZM927.735 153.952L927.169 154.094V154.943C927.169 155.51 927.405 155.935 927.877 156.218H928.301L928.726 155.651V154.943C928.537 154.471 928.207 154.141 927.735 153.952ZM927.027 177.033H926.319C925.564 180.526 925.186 183.122 925.186 184.821H925.328C925.8 184.821 926.413 182.886 927.169 179.016V178.024L927.027 177.033ZM924.337 190.344V191.335H924.62C925.092 191.146 925.328 190.58 925.328 189.636V188.645H924.903C924.714 188.645 924.525 189.211 924.337 190.344ZM924.62 192.468L924.195 193.034V193.742H924.62L925.186 193.317V192.893L924.761 192.468H924.62ZM935.948 195.866L935.523 196.008C936.089 196.48 937.128 196.763 938.638 196.857V196.433C938.638 196.055 938.025 195.866 936.797 195.866H935.948ZM936.514 201.813L934.815 202.238C935.004 203.371 935.853 203.938 937.364 203.938H937.789V203.513L937.505 203.088C937.505 202.993 937.883 202.71 938.638 202.238V201.53C938.638 200.869 938.45 200.492 938.072 200.397H937.505C937.222 200.492 936.892 200.964 936.514 201.813ZM909.468 200.539L908.477 200.822V200.964C909.232 201.719 912.159 202.144 917.256 202.238H918.248C919.003 202.238 919.475 202.002 919.664 201.53V201.247C915.699 200.775 912.3 200.539 909.468 200.539ZM922.779 202.238L923.345 202.946C924.195 202.946 924.62 202.474 924.62 201.53H923.912C923.345 201.53 922.968 201.766 922.779 202.238ZM936.089 205.07L935.665 205.637V205.92H935.948L936.373 205.354V205.07H936.089ZM925.186 205.92L923.345 206.062H921.363V206.628L923.345 206.77L927.452 206.486V206.062H926.885L925.186 205.92ZM939.63 210.734L939.063 211.159V211.584H939.913L940.054 211.159L939.913 210.734H939.63ZM944.693 141.633L944.976 141.35C947.148 141.727 949.413 141.916 951.773 141.916H963.385L963.809 142.341C963.243 144.04 962.96 145.362 962.96 146.306V148.713C963.337 151.356 964.093 152.678 965.225 152.678C965.792 151.639 967.68 150.648 970.889 149.704C978.536 146.4 984.766 144.748 989.581 144.748C992.791 144.748 996.236 146.164 999.918 148.996C1002.66 150.035 1005.3 152.253 1007.85 155.651C1011.72 161.787 1013.65 169.009 1013.65 177.316V178.449L1012.66 188.645L1013.65 196.008L1012.24 202.663V202.946V204.079L1017.62 204.362H1020.03C1021.63 204.362 1022.57 204.504 1022.86 204.787C1022.48 211.678 1021.77 215.124 1020.73 215.124C1018.85 216.257 1016.82 216.823 1014.64 216.823H1011.67C1007.14 216.823 1002.37 217.437 997.369 218.664C994.065 218.192 992.413 216.54 992.413 213.708L992.271 208.61C992.271 205.495 993.074 203.229 994.679 201.813C995.528 197.188 996.519 192.987 997.652 189.211L998.502 176.608C998.785 176.608 998.927 175.57 998.927 173.493C998.927 170.944 996.897 167.31 992.838 162.59C989.722 161.268 987.929 160.607 987.457 160.607C981.982 160.607 977.073 162.92 972.73 167.546C972.353 167.546 970.04 169.859 965.792 174.484C964.47 175.523 963.809 178.685 963.809 183.972C963.998 193.506 964.329 198.273 964.801 198.273C968.577 198.934 970.465 199.642 970.465 200.397V200.964L967.349 200.822L965.084 200.964V201.53C965.084 201.908 966.877 202.38 970.465 202.946C971.125 203.607 971.456 204.693 971.456 206.203V206.486C971.456 208.752 970.984 211.159 970.04 213.708L953.614 213.85C952.009 213.85 950.829 213.047 950.074 211.442C949.696 209.649 949.272 206.156 948.8 200.964C948.8 200.492 950.216 199.973 953.048 199.406L953.756 198.415V198.273C953.756 197.707 953.378 196.905 952.623 195.866V191.477V183.405L953.189 170.378C953.189 161.504 952.812 157.067 952.056 157.067H951.348L944.693 157.917C944.032 157.917 943.136 157.351 942.003 156.218V155.651C942.475 154.896 942.711 154.094 942.711 153.244L942.428 148.005L944.693 141.633ZM957.013 144.182L945.401 146.022V146.306C945.401 146.589 946.109 146.778 947.525 146.872C953.661 146.872 956.729 146.447 956.729 145.598L957.296 144.748V144.465H957.013V144.182ZM985.191 146.872V147.014C985.852 147.014 986.985 147.58 988.59 148.713L990.147 149.138L994.679 148.996L994.82 148.713V148.571C994.726 148.005 994.207 147.722 993.263 147.722H992.696L991.28 148.005C989.203 146.778 987.693 146.164 986.749 146.164C985.899 146.164 985.38 146.4 985.191 146.872ZM975.562 149.421V149.562L975.846 149.987C980.282 148.854 982.501 148.005 982.501 147.438H982.218C980.141 147.438 977.922 148.099 975.562 149.421ZM948.233 149.562L948.658 149.987H948.941C950.168 149.893 950.782 149.61 950.782 149.138L950.074 148.996C948.847 148.996 948.233 149.185 948.233 149.562ZM949.508 152.395V152.678L952.198 152.536H952.623C953.567 152.536 954.133 152.772 954.322 153.244V153.669C953.85 154.141 953.614 154.613 953.614 155.085C954.086 155.463 954.652 155.651 955.313 155.651C955.596 155.651 955.738 155.463 955.738 155.085L955.88 150.412L955.738 149.987H955.313C954.747 150.365 952.859 151.12 949.649 152.253L949.508 152.395ZM973.013 150.837L973.155 150.979V151.12C974.005 150.837 974.43 150.601 974.43 150.412V150.129H974.146C973.391 150.318 973.013 150.554 973.013 150.837ZM944.41 150.979V151.12C944.41 151.403 944.646 151.639 945.118 151.828C945.873 151.828 946.723 151.403 947.667 150.554V150.412H945.401C944.74 150.507 944.41 150.695 944.41 150.979ZM993.263 153.244C993.263 153.622 994.112 153.905 995.811 154.094C996.189 153.811 996.378 153.433 996.378 152.961C996.378 152.489 995.623 152.111 994.112 151.828C993.546 152.206 993.263 152.678 993.263 153.244ZM964.659 154.377V154.943C965.981 154.943 967.397 154.094 968.907 152.395V152.253L968.765 152.111H968.624C967.491 152.111 966.169 152.867 964.659 154.377ZM998.643 152.395L998.219 152.961C998.407 153.433 998.785 153.669 999.351 153.669H1000.06L1000.77 153.103V152.961C1000.67 152.583 1000.2 152.395 999.351 152.395H998.643ZM982.926 153.811V154.094H983.634C985.05 153.905 985.758 153.622 985.758 153.244V152.961H984.766C983.539 153.055 982.926 153.339 982.926 153.811ZM959.703 153.103H958.995L958.712 153.952V156.501C958.712 157.634 958.523 158.389 958.145 158.767V159.475L958.712 161.457V162.59C958.712 163.345 958.948 163.864 959.42 164.147C959.514 164.147 959.797 163.062 960.269 160.891C961.591 159.852 962.252 159.05 962.252 158.483C962.252 158.011 961.733 156.973 960.694 155.368C960.411 153.858 960.081 153.103 959.703 153.103ZM945.543 155.368V155.651H946.959L947.525 155.085V154.943L946.817 154.66C945.968 154.943 945.543 155.179 945.543 155.368ZM996.236 155.793L995.387 155.368L995.103 155.651V155.793L995.811 156.218H995.953L996.236 155.793ZM985.333 156.784L985.616 157.067H985.758C987.834 157.067 988.873 156.879 988.873 156.501L987.74 156.218C986.135 156.407 985.333 156.595 985.333 156.784ZM964.801 162.307V162.731C967.255 162.448 970.653 160.419 974.996 156.643V156.501H974.146C973.769 156.501 972.636 157.162 970.748 158.483C966.783 159.711 964.801 160.985 964.801 162.307ZM998.643 156.784H998.502V157.209C998.502 157.492 999.115 158.814 1000.34 161.174C1000.34 161.929 1000.53 162.307 1000.91 162.307L1001.48 161.74V161.174C1001.48 159.663 1000.53 158.2 998.643 156.784ZM954.605 158.483L954.888 158.908H955.172L955.596 157.067H955.172C954.888 157.067 954.7 157.539 954.605 158.483ZM990.289 159.475V159.899H993.829L994.395 159.475V158.908L993.687 158.483H992.979C991.186 158.767 990.289 159.097 990.289 159.475ZM976.27 161.74C978.347 161.363 979.386 160.843 979.386 160.183L978.961 159.899H978.536C977.12 159.899 976.365 160.513 976.27 161.74ZM971.739 163.439V163.723H972.164C973.674 162.495 974.43 161.457 974.43 160.607H974.146V160.324C973.391 160.324 972.589 161.363 971.739 163.439ZM960.836 162.023L961.119 162.873C961.119 163.628 960.694 164.383 959.845 165.139C960.317 165.611 960.553 166.083 960.553 166.555C960.553 171.275 960.883 173.635 961.544 173.635H961.685C962.441 171.936 962.818 169.717 962.818 166.979C962.724 163.487 962.299 161.646 961.544 161.457H961.261C960.977 161.457 960.836 161.646 960.836 162.023ZM1000.77 163.864V164.289C1001.9 168.537 1002.61 170.756 1002.89 170.944L1003.17 169.953V168.679C1002.51 165.469 1001.71 163.864 1000.77 163.864ZM1007.14 164.147H1007C1007.19 169.151 1007.66 171.652 1008.41 171.652H1008.7C1008.23 166.649 1007.71 164.147 1007.14 164.147ZM970.04 164.431L969.19 165.563V165.847L969.332 166.13H970.04L970.465 164.431H970.04ZM966.075 165.847L965.792 166.13L966.075 166.555H966.641V166.13L966.358 165.847H966.075ZM1006.15 182.556V182.697L1006.57 184.396H1007.28C1007.19 183.169 1006.81 182.556 1006.15 182.556ZM1000.77 192.751L1000.91 192.893H1001.05C1001.33 192.893 1001.48 192.421 1001.48 191.477V189.777C1001.1 189.777 1000.86 190.769 1000.77 192.751ZM999.918 195.017C1000.48 195.677 1000.77 196.574 1000.77 197.707H1001.05L1001.48 196.008V193.601C1000.44 193.601 999.918 194.073 999.918 195.017ZM1006.15 193.742H1005.87V194.45H1006.15V193.742ZM1009.41 194.45L1009.12 197.282V200.822H1009.26C1010.49 199.312 1011.1 197.896 1011.1 196.574V196.433C1011.1 195.111 1010.54 194.45 1009.41 194.45ZM1005.72 200.964V201.247H1005.87L1006.43 199.689V199.406H1006.15C1005.87 199.406 1005.72 199.925 1005.72 200.964ZM951.065 201.53L950.782 202.097V202.238C950.971 203.938 951.584 204.787 952.623 204.787H953.472L953.897 204.362V204.079C953.048 203.041 952.623 202.191 952.623 201.53H951.065ZM1006.15 203.513H1005.58V204.079L1006.15 204.646L1006.57 204.362V204.079L1006.15 203.513ZM1013.79 206.77V207.194C1018.04 207.194 1020.17 206.864 1020.17 206.203V205.92H1018.18C1015.26 206.014 1013.79 206.298 1013.79 206.77ZM957.013 208.186C957.013 208.658 958.24 208.894 960.694 208.894C965.414 208.894 967.774 208.658 967.774 208.186C967.774 207.619 966.169 207.336 962.96 207.336C959.373 207.336 957.39 207.619 957.013 208.186ZM995.387 208.61H994.962V209.46L995.387 209.885H995.811L995.953 209.46V209.318L995.387 208.61ZM1015.07 209.743V210.168C1015.26 210.64 1015.68 210.876 1016.34 210.876C1017.85 210.876 1018.75 210.546 1019.03 209.885V209.46C1018.85 208.894 1018.33 208.61 1017.48 208.61H1016.77C1015.82 208.61 1015.26 208.988 1015.07 209.743ZM998.502 212.292C998.785 213.047 999.257 213.425 999.918 213.425C1005.02 213.33 1007.56 213 1007.56 212.434C1006.9 211.584 1005.72 211.159 1004.02 211.159C1000.34 211.254 998.502 211.631 998.502 212.292ZM994.962 214.982L994.395 215.549V215.832C994.395 216.493 995.67 216.823 998.219 216.823H998.927L1000.06 216.54V216.398C999.115 215.454 997.605 214.982 995.528 214.982H994.962Z" fill="#655A56"/>
<defs>
<filter id="filter0_d" x="0" y="0" width="350" height="350" filterUnits="userSpaceOnUse" color-interpolation-filters="sRGB">
<feFlood flood-opacity="0" result="BackgroundImageFix"/>
<feColorMatrix in="SourceAlpha" type="matrix" values="0 0 0 0 0 0 0 0 0 0 0 0 0 0 0 0 0 0 127 0"/>
<feOffset dx="5" dy="5"/>
<feGaussianBlur stdDeviation="12.5"/>
<feColorMatrix type="matrix" values="0 0 0 0 0.396078 0 0 0 0 0.352941 0 0 0 0 0.337255 0 0 0 0.42 0"/>
<feBlend mode="normal" in2="BackgroundImageFix" result="effect1_dropShadow"/>
<feBlend mode="normal" in="SourceGraphic" in2="effect1_dropShadow" result="shape"/>
</filter>
<linearGradient id="paint0_linear" x1="20" y1="20" x2="320" y2="320" gradientUnits="userSpaceOnUse">
<stop stop-color="#A5FFE9" stop-opacity="0.85"/>
<stop offset="0.0001" stop-color="#FF686B"/>
<stop offset="0.956667" stop-color="#FFA69E"/>
</linearGradient>
</defs>
</svg>
