<svg width="350" height="350" viewBox="0 0 350 350" fill="none" xmlns="http://www.w3.org/2000/svg">
<g filter="url(#filter0_d)">
<circle cx="170" cy="170" r="150" fill="url(#paint0_linear)"/>
<path d="M127.237 132.59L129.553 138.188C130.711 140.89 133.414 142.627 136.116 142.627C137.081 142.627 138.046 142.434 139.012 142.048C142.679 140.504 144.416 136.257 142.872 132.59L140.556 126.992C139.012 123.131 139.591 118.884 142.1 115.603C148.856 107.109 149.628 95.3344 144.03 86.0688L141.135 81.436C139.012 77.9614 134.572 76.9962 131.29 79.1196C128.009 81.243 126.85 85.6827 128.974 88.9643L131.869 93.5971C134.379 97.6508 133.993 102.863 131.097 106.53C124.92 113.866 123.569 123.903 127.237 132.59Z" fill="white"/>
<path d="M160.824 132.59L163.141 138.188C164.299 140.89 167.001 142.627 169.704 142.627C170.669 142.627 171.634 142.434 172.599 142.048C176.267 140.504 178.004 136.257 176.46 132.59L174.144 126.992C172.599 123.131 173.178 118.884 175.688 115.603C182.444 107.109 183.216 95.3344 177.618 86.0688L174.723 81.436C172.599 77.9614 168.159 76.9962 164.878 79.1196C161.596 81.243 160.438 85.4897 162.369 88.9643L165.264 93.5971C167.773 97.6508 167.387 102.863 164.492 106.53C158.508 113.866 157.157 123.903 160.824 132.59Z" fill="white"/>
<path d="M194.412 132.59L196.728 138.188C197.887 140.89 200.589 142.627 203.292 142.627C204.257 142.627 205.222 142.434 206.187 142.048C209.855 140.504 211.592 136.257 210.048 132.59L207.731 126.992C206.187 123.131 206.766 118.884 209.276 115.603C216.032 107.109 216.804 95.3344 211.206 86.0688L208.31 81.436C206.187 77.9614 201.747 76.9962 198.466 79.1196C194.991 81.243 194.026 85.6827 196.149 88.9643L199.045 93.5971C201.554 97.6508 201.168 102.863 198.273 106.53C192.096 113.866 190.744 123.903 194.412 132.59Z" fill="white"/>
<path d="M213.522 164.054C211.013 164.054 208.696 164.44 206.38 165.212C204.45 158.842 197.501 154.209 189.007 154.209C183.216 154.209 178.004 156.526 174.53 160.193C169.125 158.263 162.755 157.105 156.191 157.105C145.961 157.105 136.888 159.614 130.132 163.668C127.816 161.931 125.113 160.773 122.218 160.773C114.11 160.773 107.547 168.88 107.547 178.918V179.304H232.633C231.86 170.81 223.56 164.054 213.522 164.054Z" fill="white"/>
<path d="M240.933 189.728H99.2467C96.9303 189.728 95 191.658 95 193.974C95 215.401 107.161 234.125 125.692 245.9V256.903C125.692 259.219 127.623 261.15 129.939 261.15H210.048C212.364 261.15 214.294 259.219 214.294 256.903V245.9C232.826 234.125 244.987 215.208 244.987 193.974C245.18 191.658 243.249 189.728 240.933 189.728Z" fill="white"/>
</g>
<defs>
<filter id="filter0_d" x="0" y="0" width="350" height="350" filterUnits="userSpaceOnUse" color-interpolation-filters="sRGB">
<feFlood flood-opacity="0" result="BackgroundImageFix"/>
<feColorMatrix in="SourceAlpha" type="matrix" values="0 0 0 0 0 0 0 0 0 0 0 0 0 0 0 0 0 0 127 0"/>
<feOffset dx="5" dy="5"/>
<feGaussianBlur stdDeviation="12.5"/>
<feColorMatrix type="matrix" values="0 0 0 0 0.396078 0 0 0 0 0.352941 0 0 0 0 0.337255 0 0 0 0.42 0"/>
<feBlend mode="normal" in2="BackgroundImageFix" result="effect1_dropShadow"/>
<feBlend mode="normal" in="SourceGraphic" in2="effect1_dropShadow" result="shape"/>
</filter>
<linearGradient id="paint0_linear" x1="20" y1="20" x2="320" y2="320" gradientUnits="userSpaceOnUse">
<stop stop-color="#A5FFE9" stop-opacity="0.85"/>
<stop offset="0.0001" stop-color="#FF686B"/>
<stop offset="0.956667" stop-color="#FFA69E"/>
</linearGradient>
</defs>
</svg>
